<svg width="28" height="27" viewBox="0 0 28 27" fill="none" xmlns="http://www.w3.org/2000/svg">
<g filter="url(#filter0_d)">
<path d="M14.0408 0C10.4636 0 6.90684 0.608386 5.58197 1.8155C4.62451 2.9164 4.07016 4.28212 4.00232 5.70724C3.99923 5.76193 3.99923 5.81673 4.00232 5.87141C4.00232 6.08143 4.09036 6.28284 4.24708 6.43135C4.40381 6.57985 4.61637 6.66328 4.83801 6.66328L8.07884 6.4122H8.16037C8.26878 6.41094 8.37587 6.38946 8.47551 6.34898C8.57516 6.3085 8.66541 6.24982 8.74112 6.17628C8.81683 6.10275 8.87651 6.0158 8.91676 5.92041C8.95701 5.82502 8.97703 5.72305 8.97568 5.62033V4.04625C8.97433 3.93131 8.99706 3.81725 9.04255 3.71069C9.08804 3.60412 9.15539 3.50717 9.2407 3.42544C9.326 3.34371 9.42757 3.27882 9.53952 3.23454C9.65148 3.19026 9.77159 3.16746 9.8929 3.16747H18.046C18.2919 3.16747 18.5278 3.26006 18.7017 3.42486C18.8757 3.58966 18.9734 3.81318 18.9734 4.04625V5.60102C18.9733 5.80773 19.0585 6.00627 19.2109 6.15423C19.3632 6.30219 19.5706 6.38784 19.7887 6.39288H19.8804L23.162 6.64396C23.2717 6.64396 23.3804 6.62348 23.4818 6.58369C23.5832 6.54389 23.6753 6.48556 23.7529 6.41203C23.8305 6.3385 23.8921 6.25121 23.9341 6.15513C23.9761 6.05906 23.9977 5.95609 23.9977 5.8521C24.0008 5.79741 24.0008 5.74261 23.9977 5.68793C23.9242 4.27608 23.378 2.92311 22.4384 1.82516C21.1951 0.608386 17.6179 0 14.0408 0ZM14.0408 10.3039C13.7102 10.3039 13.3871 10.3968 13.1122 10.5708C12.8373 10.7449 12.6231 10.9922 12.4966 11.2816C12.3701 11.571 12.337 11.8894 12.4015 12.1966C12.466 12.5039 12.6252 12.7861 12.8589 13.0075C13.0927 13.229 13.3905 13.3799 13.7147 13.441C14.0389 13.5021 14.375 13.4707 14.6804 13.3509C14.9858 13.231 15.2468 13.028 15.4305 12.7676C15.6141 12.5071 15.7121 12.2009 15.7121 11.8877C15.7135 11.6793 15.6712 11.4728 15.5877 11.2801C15.5042 11.0874 15.3811 10.9123 15.2256 10.7649C15.0702 10.6176 14.8854 10.501 14.682 10.4219C14.4786 10.3427 14.2606 10.3027 14.0408 10.3039ZM12.7872 6.75985V5.79416C12.7872 5.53804 12.6799 5.29241 12.4887 5.11131C12.2976 4.93021 12.0384 4.82846 11.7681 4.82846C11.4978 4.82846 11.2386 4.93021 11.0475 5.11131C10.8563 5.29241 10.749 5.53804 10.749 5.79416V6.75985L5.02145 12.4478C4.81897 12.6306 4.65837 12.8511 4.54967 13.0953C4.44096 13.3395 4.38647 13.6023 4.38959 13.8673V15.4511C4.38958 15.872 4.56534 16.2758 4.8785 16.5744C5.19165 16.8729 5.61675 17.0419 6.06096 17.0445H6.47881V18.0102C6.47881 18.1402 6.50583 18.2689 6.55832 18.389C6.61082 18.5091 6.68777 18.6182 6.78477 18.7101C6.88177 18.802 6.99692 18.8749 7.12366 18.9247C7.2504 18.9744 7.38624 19 7.52342 19C7.6606 19 7.79643 18.9744 7.92317 18.9247C8.04991 18.8749 8.16507 18.802 8.26207 18.7101C8.35907 18.6182 8.43601 18.5091 8.48851 18.389C8.54101 18.2689 8.56803 18.1402 8.56803 18.0102V17.0445H19.4727V18.0102C19.4727 18.2727 19.5828 18.5245 19.7787 18.7101C19.9746 18.8957 20.2403 19 20.5173 19C20.7944 19 21.0601 18.8957 21.256 18.7101C21.4519 18.5245 21.562 18.2727 21.562 18.0102V17.0445H21.9798C22.2001 17.0445 22.4183 17.0032 22.6218 16.923C22.8252 16.8428 23.0099 16.7253 23.1653 16.5772C23.3206 16.4291 23.4435 16.2534 23.5269 16.0601C23.6103 15.8669 23.6525 15.6599 23.6512 15.4511V13.8673C23.6556 13.603 23.6027 13.3406 23.4958 13.0964C23.3888 12.8523 23.2301 12.6315 23.0295 12.4478L17.3835 6.75985V5.79416C17.3835 5.53163 17.2735 5.27987 17.0776 5.09424C16.8817 4.90861 16.616 4.80432 16.3389 4.80432C16.0619 4.80432 15.7962 4.90861 15.6003 5.09424C15.4044 5.27987 15.2943 5.53163 15.2943 5.79416V6.75985H12.7872ZM14.0408 8.69123C14.7019 8.69123 15.3482 8.877 15.8979 9.22505C16.4476 9.57309 16.8761 10.0678 17.1291 10.6466C17.3821 11.2253 17.4483 11.8622 17.3193 12.4766C17.1903 13.0911 16.8719 13.6555 16.4044 14.0984C15.937 14.5414 15.3413 14.8431 14.6929 14.9653C14.0445 15.0875 13.3724 15.0248 12.7615 14.7851C12.1507 14.5453 11.6287 14.1393 11.2614 13.6185C10.8941 13.0976 10.698 12.4852 10.698 11.8587C10.698 11.0186 11.0502 10.213 11.6771 9.61896C12.304 9.02495 13.1542 8.69123 14.0408 8.69123V8.69123Z" fill="#D22856"/>
</g>
<defs>
<filter id="filter0_d" x="0" y="0" width="28" height="27" filterUnits="userSpaceOnUse" color-interpolation-filters="sRGB">
<feFlood flood-opacity="0" result="BackgroundImageFix"/>
<feColorMatrix in="SourceAlpha" type="matrix" values="0 0 0 0 0 0 0 0 0 0 0 0 0 0 0 0 0 0 127 0"/>
<feOffset dy="4"/>
<feGaussianBlur stdDeviation="2"/>
<feColorMatrix type="matrix" values="0 0 0 0 0 0 0 0 0 0 0 0 0 0 0 0 0 0 0.25 0"/>
<feBlend mode="normal" in2="BackgroundImageFix" result="effect1_dropShadow"/>
<feBlend mode="normal" in="SourceGraphic" in2="effect1_dropShadow" result="shape"/>
</filter>
</defs>
</svg>
